<svg width="98" height="21" viewBox="0 0 98 21" fill="none" xmlns="http://www.w3.org/2000/svg">
<path d="M6.18617 20.4991H7.65107C8.24965 20.4991 8.73571 20.0117 8.73571 19.4113V7.25944C8.73571 6.65908 8.24965 6.17163 7.65107 6.17163H6.18617C5.58758 6.17163 5.10156 6.65908 5.10156 7.25944V19.4113C5.10156 20.0117 5.58758 20.4991 6.18617 20.4991Z" fill="white"/>
<path d="M2.86357 20.4963H2.86495C3.26583 20.4963 3.58985 20.1713 3.58985 19.7692V6.89586C3.58985 6.49379 3.26583 6.16882 2.86495 6.16882H2.86357C2.46268 6.16882 2.13867 6.49379 2.13867 6.89586V19.7692C2.13867 20.1713 2.46268 20.4963 2.86357 20.4963Z" fill="white"/>
<path d="M0.314403 20.4963C0.48739 20.4963 0.628794 20.3558 0.628794 20.181V6.48415C0.628794 6.31065 0.48739 6.16882 0.314403 6.16882C0.141407 6.16882 0 6.31065 0 6.48415V20.181C0 20.3544 0.141407 20.4963 0.314403 20.4963Z" fill="white"/>
<path d="M14.6394 6.17017H12.0144C11.0383 6.17017 10.2461 6.96468 10.2461 7.94372V18.7241C10.2461 19.7031 11.0383 20.4977 12.0144 20.4977H14.6394C15.6156 20.4977 16.4077 19.7031 16.4077 18.7241V7.94372C16.4077 6.96468 15.6156 6.17017 14.6394 6.17017Z" fill="white"/>
<path d="M28.4232 4.84284C28.4232 3.75778 29.0341 3.20148 30.0885 3.20148C30.7819 3.20148 31.2816 3.25656 31.92 3.36809V0.27815C31.1704 0.111536 30.2272 0 29.3678 0C26.5382 0 24.7616 1.55874 24.7616 4.59223V5.00946C24.7616 5.76128 24.3731 6.17851 23.6235 6.17851H22.5691V9.57417H24.7616V20.5101H28.4245V9.57417H32.1699V6.17851H28.4245V4.84284H28.4232Z" fill="white"/>
<path d="M36.5359 0.178955C37.7578 0.178955 38.7244 1.14697 38.7244 2.30777C38.7244 3.46856 37.7578 4.43657 36.5359 4.43657C35.314 4.43657 34.3763 3.4961 34.3763 2.30777C34.3763 1.11943 35.314 0.178955 36.5359 0.178955Z" fill="white"/>
<path d="M38.3688 6.17847H34.7333V20.5101H38.3688V6.17847Z" fill="white"/>
<path d="M48.7906 5.87146C46.7285 5.87146 45.3129 6.85462 44.6018 7.95896V6.17715H40.9663V20.5088H44.6018V13.113C44.61 10.9264 45.8278 9.40476 47.6263 9.40476C49.4249 9.40476 50.5122 10.5174 50.5122 12.967V20.5088H54.1477V12.1601C54.1477 7.62435 51.7341 5.87146 48.792 5.87146H48.7906Z" fill="white"/>
<path d="M61.5121 15.3341V9.5742H65.2575V6.17856H61.5121V2.17017H58.2665L58.1059 5.12792C58.0921 5.70901 57.7009 6.17856 57.0913 6.17856H55.5193V9.5742H57.8505V15.6412C57.8505 19.1194 59.9319 20.7897 62.7614 20.7897C63.8996 20.7897 64.6479 20.6781 65.5362 20.484V17.0333C64.7866 17.1999 64.3157 17.2563 63.4274 17.2563C62.318 17.2563 61.5135 16.7552 61.5135 15.3369V15.3341H61.5121Z" fill="white"/>
<path d="M74.4835 5.87146C70.1835 5.87146 66.9091 9.07159 66.9091 13.3292C66.9091 17.5868 70.1835 20.8144 74.4835 20.8144C78.7835 20.8144 82.1141 17.6144 82.1141 13.3292C82.1141 9.04404 78.7849 5.87146 74.4835 5.87146ZM74.4835 17.2811C72.2085 17.2811 70.5707 15.5282 70.5707 13.3292C70.5707 11.1302 72.2072 9.40476 74.4835 9.40476C76.7598 9.40476 78.4512 11.1577 78.4512 13.3292C78.4512 15.5007 76.7584 17.2811 74.4835 17.2811Z" fill="white"/>
<path d="M91.0875 17.3308C88.7851 17.3308 87.1477 15.5779 87.1477 13.3789C87.1477 11.1799 88.7842 9.45445 91.0875 9.45445C92.5305 9.45445 93.5581 10.1223 94.224 11.2074L97.3596 9.28786C96.0279 7.20035 93.835 5.92114 91.0893 5.92114C86.678 5.92114 83.4873 9.12128 83.4873 13.3789C83.4873 17.6365 86.678 20.8641 91.0893 20.8641C93.8367 20.8641 96.0279 19.5835 97.3596 17.4974L94.224 15.5779C93.5581 16.663 92.5305 17.3308 91.0875 17.3308Z" fill="white"/>
</svg>
