<svg width="83" height="28" viewBox="0 0 83 28" fill="none" xmlns="http://www.w3.org/2000/svg">
<path d="M31.064 22.0898C31.2239 22.2497 31.4104 22.3296 31.6343 22.3296H35.3967C35.6152 22.3296 35.807 22.2497 35.9669 22.0898C36.1268 21.9299 36.2067 21.7434 36.2067 21.5196V13.3072C36.2067 12.1348 36.0469 11.1169 35.7271 10.2589C35.4074 9.40089 34.965 8.69743 34.4001 8.13786C33.8299 7.57829 33.1478 7.16794 32.3537 6.89615C31.5543 6.62969 30.6803 6.49113 29.7264 6.49113C28.7885 6.49113 27.9624 6.68298 27.2483 7.07201C26.5289 7.46105 26.0013 7.86607 25.6655 8.28175V1.92398C25.6655 1.70548 25.5856 1.51363 25.4257 1.35908C25.2658 1.1992 25.0793 1.11926 24.8608 1.11926H21.0824C20.8639 1.11926 20.672 1.1992 20.5122 1.35908C20.3523 1.51895 20.2723 1.70548 20.2723 1.92398V21.5196C20.2723 21.7381 20.3523 21.9299 20.5122 22.0898C20.672 22.2497 20.8586 22.3296 21.0824 22.3296H24.8448C25.0633 22.3296 25.2552 22.2497 25.4097 22.0898C25.5696 21.9299 25.6495 21.7434 25.6495 21.5196V13.9627C25.6495 13.1047 25.852 12.4172 26.2624 11.9003C26.6727 11.3834 27.3229 11.1222 28.2182 11.1222C29.1135 11.1222 29.769 11.3834 30.19 11.9003C30.6057 12.4172 30.8189 13.1047 30.8189 13.9627V21.5196C30.8242 21.7434 30.9042 21.9299 31.064 22.0898Z" fill="white"/>
<path d="M44.0888 6.79498H40.321C40.1025 6.79498 39.9107 6.87492 39.7508 7.0348C39.5909 7.19468 39.511 7.3812 39.511 7.5997V21.5196C39.511 21.7381 39.5909 21.93 39.7508 22.0899C39.9107 22.2498 40.0972 22.3297 40.321 22.3297H44.0835C44.302 22.3297 44.4938 22.2498 44.6484 22.0899C44.8082 21.93 44.8882 21.7435 44.8882 21.5196V7.5997C44.8882 7.3812 44.8082 7.18935 44.6484 7.0348C44.4938 6.87492 44.3073 6.79498 44.0888 6.79498Z" fill="white"/>
<path d="M63.8176 18.8017C64.1853 17.9437 64.3878 16.9312 64.4304 15.7534C64.4517 15.455 64.4624 15.05 64.4624 14.5437C64.4624 14.0374 64.4517 13.6324 64.4304 13.3339C64.3878 12.1615 64.1853 11.1436 63.8176 10.2856C63.4498 9.42762 62.9649 8.71883 62.368 8.1486C61.7711 7.57837 61.073 7.16269 60.279 6.89623C59.4796 6.62977 58.6376 6.49121 57.7422 6.49121C57.0867 6.49121 56.5325 6.5445 56.0848 6.65642C55.6372 6.76833 55.2588 6.90689 54.9497 7.0721C54.6406 7.24263 54.3848 7.43448 54.1717 7.65298C53.9638 7.87148 53.7666 8.07932 53.5908 8.28183V7.59436C53.5908 7.37586 53.5108 7.18401 53.351 7.02413C53.1911 6.86426 53.0046 6.78432 52.7861 6.78432H49.1728C48.9543 6.78432 48.7625 6.86426 48.6026 7.02413C48.4427 7.18401 48.3628 7.37053 48.3628 7.59436V27.1899C48.3628 27.4084 48.4427 27.6003 48.6026 27.7602C48.7625 27.92 48.949 28 49.1728 28H52.9353C53.1538 28 53.3456 27.92 53.5055 27.7602C53.6654 27.6003 53.7453 27.4138 53.7453 27.1899V20.8375C53.8839 21.0187 54.0651 21.2105 54.2836 21.4184C54.5021 21.6262 54.7739 21.8234 55.0883 21.9993C55.408 22.1805 55.7864 22.3297 56.2234 22.4469C56.6604 22.5642 57.1667 22.6281 57.7476 22.6281C58.6429 22.6281 59.4902 22.4896 60.2843 22.2124C61.0783 21.9353 61.7765 21.509 62.3733 20.9441C62.9649 20.3739 63.4498 19.6597 63.8176 18.8017ZM59.0799 15.3964C59.0213 16.0945 58.7921 16.702 58.3924 17.219C57.9927 17.7359 57.3266 17.997 56.3886 17.997C55.9516 17.997 55.5732 17.9277 55.2535 17.7892C54.9337 17.6506 54.6726 17.4641 54.4594 17.2349C54.2516 17.0058 54.0864 16.75 53.9691 16.4729C53.8519 16.1957 53.772 15.908 53.7293 15.6042C53.6867 15.3058 53.6707 14.9594 53.6707 14.5597C53.6707 14.16 53.692 13.8136 53.7293 13.5151C53.7666 13.2167 53.8466 12.9289 53.9691 12.6465C54.0864 12.3694 54.2516 12.1135 54.4594 11.8844C54.6673 11.6552 54.9337 11.4687 55.2535 11.3302C55.5732 11.1916 55.9516 11.1223 56.3886 11.1223C57.3266 11.1223 57.9927 11.3834 58.3924 11.9004C58.7921 12.4173 59.0213 13.0248 59.0799 13.723C59.1438 14.2825 59.1438 14.8421 59.0799 15.3964Z" fill="white"/>
<path d="M77.9294 22.0899C78.0893 22.2498 78.2758 22.3297 78.4996 22.3297H81.9636C82.1821 22.3297 82.374 22.2498 82.5285 22.0899C82.6884 21.93 82.7683 21.7435 82.7683 21.5196V7.5997C82.7683 7.3812 82.6884 7.18935 82.5285 7.0348C82.3686 6.87492 82.1821 6.79498 81.9636 6.79498H78.2012C77.9827 6.79498 77.7908 6.87492 77.6309 7.0348C77.4711 7.19468 77.3911 7.3812 77.3911 7.5997V15.1565C77.3911 16.0146 77.2046 16.702 76.8369 17.219C76.4692 17.7359 75.8457 17.997 74.9717 17.997C74.0977 17.997 73.4688 17.7359 73.0904 17.219C72.7121 16.702 72.5202 16.0146 72.5202 15.1565V7.5997C72.5202 7.3812 72.4403 7.18935 72.2804 7.0348C72.1205 6.87492 71.934 6.79498 71.7102 6.79498H67.9477C67.7292 6.79498 67.5374 6.87492 67.3775 7.0348C67.2176 7.19468 67.1377 7.3812 67.1377 7.5997V15.812C67.1377 18.1622 67.7079 19.8836 68.8537 20.9814C69.9995 22.0792 71.5396 22.6228 73.4688 22.6228C74.087 22.6228 74.6199 22.5695 75.0676 22.4576C75.5152 22.3457 75.9096 22.2071 76.2453 22.0419C76.5864 21.8714 76.8689 21.6849 77.098 21.4717C77.3272 21.2638 77.519 21.0507 77.6789 20.8322V21.5196C77.6896 21.7435 77.7695 21.93 77.9294 22.0899Z" fill="white"/>
<path d="M42.1063 5.19067C40.6728 5.19067 39.511 4.02357 39.511 2.59534C39.511 1.16177 40.6781 0 42.1063 0C43.5399 0 44.7017 1.1671 44.7017 2.59534C44.707 4.02357 43.5399 5.19067 42.1063 5.19067Z" fill="white"/>
<path d="M5.85694 13.888V8.92645L4.37541 10.7864C4.14626 11.0741 4.1356 11.4792 4.34877 11.7829L5.85694 13.888Z" fill="white"/>
<path d="M5.53174 1.34842C5.38252 1.1992 5.19067 1.11926 4.97217 1.11926H0.76208C0.559569 1.11926 0.383705 1.19387 0.229157 1.34842C0.0799386 1.49764 0 1.68949 0 1.90799V21.5728C0 21.7754 0.0746094 21.9512 0.229157 22.1058C0.378376 22.255 0.559569 22.3349 0.76208 22.3349H4.97217C5.196 22.3349 5.38252 22.2603 5.53174 22.1058C5.68096 21.9566 5.7609 21.7754 5.7609 21.5728V15.7L5.29725 15.0872L5.2866 15.0765L5.27594 15.0605L3.38939 12.4172C2.89377 11.7244 2.91509 10.7705 3.44801 10.1043L5.30258 7.77014L5.7609 7.17327V1.90266C5.7609 1.68416 5.68629 1.49764 5.53174 1.34842Z" fill="white"/>
<path d="M17.9384 22.3295C18.1196 22.3295 18.2741 22.2656 18.3914 22.1323C18.5139 21.9991 18.5725 21.8552 18.5725 21.6953C18.5725 21.5355 18.5299 21.4129 18.45 21.333L10.9997 11.2714L17.9064 2.12108C17.9863 2.01982 18.029 1.89725 18.029 1.75869C18.029 1.59881 17.965 1.44959 17.8318 1.32169C17.7518 1.24175 17.6559 1.18313 17.5547 1.15116C17.496 1.13517 17.4268 1.12451 17.3628 1.12451H12.5772C12.2521 1.12451 11.9963 1.18846 11.8044 1.32169C11.6126 1.45492 11.4634 1.58815 11.3674 1.73204L6.21406 8.48418L4.34883 10.829C4.24225 10.9623 4.18363 11.1221 4.18363 11.2874C4.1783 11.4526 4.22626 11.6124 4.32752 11.7563L5.29211 13.1046L6.21406 14.389L11.7565 21.69C11.8151 21.77 11.9377 21.8979 12.1189 22.0684C12.2308 22.175 12.3853 22.2496 12.5772 22.2922C12.6944 22.3189 12.8223 22.3295 12.9662 22.3295H17.9384Z" fill="white"/>
</svg>
