<svg width="58" height="36" viewBox="0 0 58 36" fill="none" xmlns="http://www.w3.org/2000/svg">
<path d="M27.4095 32.63C27.5489 32.75 27.6982 32.87 27.8426 32.99C25.0001 34.89 21.5901 36 17.9212 36C8.02472 36 0 27.94 0 18C0 8.06 8.02472 0 17.9212 0C21.5901 0 25.0001 1.11 27.8426 3.01C27.6982 3.13 27.5489 3.245 27.4095 3.37C23.1881 7.06 20.7637 12.395 20.7637 18C20.7637 23.605 23.1831 28.94 27.4095 32.63ZM40.0738 0C36.4049 0 32.9949 1.11 30.1524 3.01C30.2968 3.13 30.4461 3.245 30.5855 3.37C34.807 7.06 37.2313 12.39 37.2313 18C37.2313 23.61 34.8119 28.94 30.5905 32.63C30.4511 32.75 30.3018 32.87 30.1574 32.99C32.9999 34.89 36.4099 36 40.0788 36C49.9753 36 58 27.94 58 18C58 8.06 49.9703 0 40.0738 0ZM28.9975 3.855C28.7685 4.035 28.5395 4.225 28.3205 4.42C24.5421 7.72 22.1526 12.58 22.1526 18C22.1526 23.42 24.5421 28.28 28.3205 31.58C28.5395 31.775 28.7685 31.96 28.9975 32.145C29.2265 31.96 29.4555 31.775 29.6745 31.58C33.4529 28.28 35.8424 23.42 35.8424 18C35.8424 12.58 33.4529 7.72 29.6745 4.42C29.4555 4.225 29.2265 4.04 28.9975 3.855Z" fill="white"/>
</svg>
