<svg width="74" height="24" viewBox="0 0 74 24" fill="none" xmlns="http://www.w3.org/2000/svg">
<path d="M48.1989 0C42.9446 0 38.2491 2.72607 38.2491 7.76268C38.2491 13.5387 46.5767 13.9376 46.5767 16.8393C46.5767 18.0611 45.1779 19.1548 42.7888 19.1548C39.3982 19.1548 36.8641 17.6266 36.8641 17.6266L35.7798 22.7091C35.7798 22.7091 38.699 24 42.5749 24C48.3195 24 52.8398 21.14 52.8398 16.0174C52.8398 9.91397 44.4776 9.52685 44.4776 6.83363C44.4776 5.8764 45.6258 4.82775 48.0081 4.82775C50.6959 4.82775 52.889 5.9392 52.889 5.9392L53.9501 1.03041C53.9501 1.03041 51.564 0 48.1989 0ZM0.127259 0.37051L0 1.11145C0 1.11145 2.21052 1.51637 4.20141 2.32419C6.76481 3.25043 6.94748 3.7897 7.37919 5.46451L12.0836 23.6179H18.3901L28.1057 0.37051H21.8137L15.5709 16.1765L13.0235 2.77856C12.7899 1.24521 11.6064 0.37051 10.1579 0.37051H0.127259ZM30.6358 0.37051L25.6999 23.6178H31.6999L36.6184 0.370435H30.6358V0.37051ZM64.0994 0.37051C62.6526 0.37051 61.8861 1.14586 61.3236 2.50074L52.5333 23.6178H58.8253L60.0426 20.0983H67.708L68.4483 23.6178H74L69.1567 0.37051H64.0994ZM64.9177 6.65123L66.7827 15.3748H61.7861L64.9177 6.65123Z" fill="white"/>
</svg>
