<svg width="99" height="32" viewBox="0 0 99 32" fill="none" xmlns="http://www.w3.org/2000/svg">
<path d="M5.47739 27.6628C5.77723 27.6628 6.0205 27.4183 6.0205 27.1164C6.0205 26.8148 5.77723 26.5697 5.47739 26.5697C5.17838 26.5697 4.93506 26.8148 4.93506 27.1164C4.93506 27.4183 5.17838 27.6628 5.47739 27.6628Z" fill="white"/>
<path d="M47.484 31.9452C47.7839 31.9452 48.0272 31.7006 48.0272 31.3991C48.0272 31.097 47.7839 30.8521 47.484 30.8521C47.1848 30.8521 46.942 31.097 46.942 31.3991C46.942 31.7006 47.1848 31.9452 47.484 31.9452Z" fill="white"/>
<path d="M21.7879 28.6343L21.7876 28.6324C21.7864 28.0234 21.5749 27.5095 21.1911 27.1624L21.1641 27.1382L21.158 27.1326H21.1566C20.7956 26.8226 20.3066 26.6591 19.7267 26.6535C19.7246 26.653 19.7196 26.6529 19.7142 26.6529C19.7088 26.6529 19.7034 26.653 19.6979 26.6538L19.6937 26.6535C19.6764 26.6535 19.6647 26.654 19.656 26.6544C19.6493 26.654 19.6384 26.6535 19.6257 26.6535L19.617 26.6538C19.6125 26.6533 19.6069 26.6529 19.6 26.6529H19.5978C19.5984 26.6529 19.5968 26.6529 19.5949 26.6529C19.5918 26.6529 19.5879 26.6529 19.5836 26.6535C19.0051 26.6599 18.5179 26.8228 18.1579 27.1326H18.1562L18.1232 27.1624C17.7409 27.508 17.5294 28.0195 17.5266 28.6253L17.5259 28.6284L17.5229 31.7649C17.5229 31.8068 17.5407 31.8481 17.5719 31.8773C17.6033 31.9071 17.6471 31.9242 17.6911 31.9242H18.2494C18.2933 31.9242 18.3366 31.9071 18.3682 31.8773C18.3999 31.8481 18.4174 31.8068 18.4174 31.7649L18.4187 28.7342C18.422 28.2902 18.5356 27.9754 18.7406 27.7675C18.9391 27.5661 19.2423 27.4523 19.6595 27.4443C20.0727 27.4523 20.3752 27.5661 20.574 27.7675C20.7788 27.9754 20.8924 28.2902 20.896 28.7351L20.8951 31.7649C20.8951 31.8068 20.913 31.8481 20.9443 31.8773C20.9757 31.9071 21.0193 31.9242 21.0633 31.9242H21.6224C21.6664 31.9242 21.7098 31.9071 21.7413 31.8773C21.7733 31.8481 21.7907 31.8068 21.7907 31.7649L21.7879 28.6343Z" fill="white"/>
<path d="M41.2528 28.6343L41.2526 28.6324C41.2513 28.0234 41.04 27.5095 40.6561 27.1624L40.6291 27.1382L40.6229 27.1326C40.2618 26.8226 39.7716 26.6591 39.1917 26.6535C39.1895 26.653 39.1847 26.6529 39.1791 26.6529C39.1738 26.6529 39.1684 26.653 39.163 26.6538L39.1587 26.6535C39.1413 26.6535 39.1296 26.654 39.1211 26.6544C39.1143 26.654 39.1034 26.6535 39.0907 26.6535L39.0819 26.6538C39.0775 26.6533 39.072 26.6529 39.0649 26.6529H39.0628C39.0637 26.6529 39.0617 26.6529 39.0598 26.6529C39.0569 26.6529 39.0529 26.6529 39.0486 26.6535C38.4701 26.6599 37.9829 26.8228 37.6228 27.1326H37.6211L37.5882 27.1624C37.2058 27.508 36.9945 28.0195 36.9917 28.6253L36.9908 28.6284L36.9878 31.7649C36.9878 31.8068 37.0057 31.8481 37.0369 31.8773C37.0683 31.9071 37.112 31.9242 37.1561 31.9242H37.7142C37.7584 31.9242 37.8015 31.9071 37.8333 31.8773C37.8649 31.8481 37.8823 31.8068 37.8823 31.7649L37.8835 28.7342C37.8869 28.2902 38.0005 27.9754 38.2055 27.7675C38.4042 27.5661 38.7073 27.4523 39.1246 27.4443C39.5377 27.4523 39.8403 27.5661 40.039 27.7675C40.2437 27.9754 40.3574 28.2902 40.3609 28.7351L40.36 31.7649C40.36 31.8068 40.3779 31.8481 40.4091 31.8773C40.4406 31.9071 40.4843 31.9242 40.5283 31.9242H41.0875C41.1314 31.9242 41.1748 31.9071 41.2063 31.8773C41.2381 31.8481 41.2555 31.8068 41.2555 31.7649L41.2528 28.6343Z" fill="white"/>
<path d="M30.8155 29.303V29.3141V29.3269C30.8141 29.8264 30.7611 30.3145 30.5711 30.6639C30.3844 30.9999 30.0841 31.2243 29.501 31.2332C29.4972 31.2328 29.491 31.2328 29.4793 31.2332H29.4695C28.8825 31.2272 28.5782 31.0025 28.3906 30.6632C28.199 30.3126 28.1455 29.8204 28.1455 29.3177V29.2875C28.146 28.7881 28.199 28.3875 28.3906 28.0384C28.5782 27.6991 28.8825 27.4739 29.4695 27.4685H29.4736H29.4831H29.4921C30.0794 27.4739 30.3826 27.6986 30.5717 28.039C30.7621 28.3875 30.8155 28.7881 30.8155 29.2875V29.303ZM30.9807 27.1884C30.9777 27.1849 30.9748 27.1812 30.9707 27.1777C30.6527 26.8844 30.1443 26.7028 29.5553 26.7021C29.5473 26.701 29.535 26.701 29.5234 26.701C29.039 26.7009 28.5612 26.8021 28.146 27.1576L28.1455 26.8459L28.1463 25.2654C28.1463 25.2236 28.1285 25.1826 28.0971 25.1535C28.0659 25.1239 28.0222 25.1068 27.9781 25.1068H27.4279C27.3841 25.1068 27.3407 25.1239 27.309 25.1535C27.2773 25.1826 27.26 25.2236 27.26 25.2654V26.8459L27.2604 30.2014L27.26 31.7733C27.26 31.8151 27.278 31.8561 27.309 31.885C27.3405 31.9148 27.3841 31.9318 27.4283 31.9318H27.9783C28.0222 31.9318 28.0656 31.9148 28.0971 31.885C28.1291 31.8561 28.1465 31.8151 28.1465 31.7733V31.4484C28.5136 31.8588 29.0404 32.0002 29.5234 32.0001H29.5576C30.1453 31.9982 30.6538 31.8166 30.9707 31.5237C31.5634 30.9626 31.6989 30.1027 31.7007 29.3033C31.6991 28.5081 31.5634 27.7474 30.9807 27.1884Z" fill="white"/>
<path d="M15.9773 30.0187C15.9761 30.4383 15.8842 30.6701 15.7608 30.7781C15.4634 31.0528 15.0949 31.094 14.6463 31.0948H14.6414H14.633C14.201 31.0954 13.917 31.0204 13.756 30.9039C13.6031 30.7932 13.5242 30.6352 13.5204 30.3633V30.3509C13.5233 30.081 13.6053 29.9126 13.7598 29.7939C13.9217 29.6708 14.1941 29.5909 14.602 29.5909H14.6056H15.9773V30.0187ZM16.9009 28.4019V28.3982C16.9011 27.8663 16.7242 27.4103 16.3532 27.1056C15.9796 26.7987 15.4434 26.6546 14.7532 26.6543H14.7283H14.7189C13.9942 26.6522 13.4185 26.81 12.9802 27.2764L12.9785 27.2747L12.9535 27.3047C12.9205 27.3413 12.8881 27.3788 12.8569 27.4191C12.8569 27.4191 12.8562 27.42 12.856 27.4203L12.8112 27.4735C12.7843 27.5052 12.7712 27.548 12.7767 27.5909C12.7814 27.6343 12.8033 27.6758 12.8367 27.7045L12.862 27.7264C12.8717 27.7381 12.8824 27.7489 12.8943 27.7589L12.9923 27.8393L13.2531 28.0649C13.2865 28.0941 13.3305 28.1097 13.3732 28.1074C13.4155 28.1058 13.4555 28.0865 13.4822 28.0545L13.6497 27.8556C13.754 27.7423 13.8611 27.662 13.9906 27.6054C14.1734 27.525 14.4082 27.4876 14.7473 27.4844H14.7514L14.7628 27.4838C15.2451 27.4849 15.5452 27.583 15.717 27.7338C15.8884 27.8823 15.9754 28.1064 15.9767 28.455C15.9767 28.4573 15.9767 28.4635 15.9773 28.4714V28.8001H14.5452C13.9675 28.8014 13.4842 28.932 13.1354 29.2041C12.7891 29.4701 12.596 29.8796 12.5957 30.3567L12.596 30.3747C12.5967 30.7722 12.7461 31.162 13.0174 31.4327C13.3841 31.794 13.8723 31.9253 14.6101 31.9253H14.6184H14.9923C15.6679 31.9259 16.1526 31.7589 16.4648 31.4223C16.7764 31.0856 16.9011 30.5988 16.9011 29.9934V28.411L16.9009 28.4019Z" fill="white"/>
<path d="M32.9913 30.3693V30.357C32.9941 30.0875 33.0761 29.919 33.2307 29.8006C33.3926 29.6773 33.6651 29.5976 34.0728 29.5976H34.0765H35.4483V30.025C35.4469 30.4443 35.3551 30.6759 35.2316 30.7842C34.9342 31.0583 34.5659 31.0996 34.117 31.1007H34.1121H34.1039C33.6716 31.1011 33.3879 31.0262 33.227 30.9095C33.0738 30.799 32.9951 30.6413 32.9913 30.3693ZM36.3718 28.4091V28.4055C36.3721 27.8739 36.1951 27.4183 35.8241 27.1137C35.4508 26.8071 34.9144 26.6629 34.2244 26.6627H34.1992H34.1898C33.4649 26.6609 32.8894 26.8184 32.4513 27.2844L32.4494 27.2829L32.4244 27.3128C32.3914 27.3493 32.3591 27.3871 32.3276 27.4271C32.3273 27.4276 32.3272 27.4279 32.3269 27.4283L32.282 27.4815C32.2552 27.5132 32.242 27.556 32.2476 27.5989C32.2523 27.642 32.2741 27.6835 32.3075 27.7125L32.3329 27.7344C32.3427 27.7458 32.3533 27.7568 32.3651 27.7667L32.4632 27.8471L32.724 28.0725C32.7574 28.1014 32.8013 28.1172 32.844 28.115C32.8865 28.1132 32.9262 28.094 32.953 28.0621L33.1204 27.8635C33.2248 27.7503 33.3319 27.6697 33.4615 27.6131C33.6444 27.533 33.8792 27.4953 34.2182 27.4923L34.2222 27.4922L34.2336 27.4916C34.716 27.4928 35.016 27.591 35.1879 27.7415C35.3593 27.8898 35.446 28.114 35.4475 28.4623C35.4475 28.4647 35.4475 28.4708 35.4483 28.4786V28.8073H34.0161C33.4383 28.8086 32.9551 28.9389 32.6064 29.2109C32.2599 29.4768 32.0669 29.8862 32.0667 30.3628L32.0669 30.381C32.0677 30.7782 32.2169 31.1677 32.4884 31.4382C32.8549 31.7992 33.3432 31.9306 34.081 31.9306H34.0892H34.4632C35.1389 31.9311 35.6234 31.7642 35.9356 31.4276C36.2472 31.0914 36.3721 30.605 36.3721 29.9999V28.4183L36.3718 28.4091Z" fill="white"/>
<path d="M8.29661 26.6729H7.35329L7.35291 25.7168L7.35227 25.254C7.35227 25.171 7.27955 25.1033 7.18983 25.1033H6.62263C6.57989 25.1033 6.53777 25.1191 6.50799 25.1473C6.47757 25.1755 6.45972 25.2147 6.45972 25.254V26.1066L6.46016 30.5887C6.46055 30.9528 6.56539 31.2806 6.79593 31.529C7.01558 31.7692 7.37156 31.9192 7.78288 31.9192H7.7844H8.05764V31.9158H8.29661C8.33823 31.9158 8.37872 31.8976 8.40778 31.8663C8.43722 31.8348 8.4541 31.791 8.4541 31.7462V31.1923C8.4541 31.148 8.43722 31.1042 8.40778 31.0726C8.37872 31.0407 8.33823 31.023 8.29661 31.023H7.85826C7.76942 31.0195 7.69823 31.0088 7.63617 30.9868C7.59657 30.9732 7.57208 30.9579 7.54936 30.9434C7.52423 30.9258 7.5104 30.9173 7.48578 30.8916C7.40139 30.8033 7.35468 30.6636 7.35329 30.4553V27.5659H8.29661C8.33823 27.5659 8.37872 27.5478 8.40778 27.5163C8.43722 27.4846 8.4541 27.4408 8.4541 27.3964V26.8422C8.4541 26.798 8.43722 26.7544 8.40778 26.7225C8.37872 26.6905 8.33823 26.6729 8.29661 26.6729Z" fill="white"/>
<path d="M12.3644 27.3273L12.3121 27.269C12.3099 27.2622 12.3061 27.2558 12.2998 27.2492L12.2681 27.2168L12.2247 27.1716L12.1889 27.1318L12.1875 27.1334C11.8665 26.7957 11.4671 26.6534 11.0419 26.6529C11.0331 26.6529 11.0228 26.6531 11.0085 26.6534C10.7064 26.6534 10.3499 26.7891 10.1361 27.0466L9.98863 27.2216V27.1485V26.8303C9.98863 26.7886 9.97086 26.7476 9.93952 26.7186C9.90804 26.6888 9.86451 26.6718 9.82022 26.6718H9.27045C9.22629 26.6718 9.18288 26.6888 9.15141 26.7186C9.11981 26.7476 9.10229 26.7886 9.10229 26.8303V27.1485V31.7672C9.10229 31.8092 9.12019 31.8501 9.15141 31.8792C9.18263 31.909 9.22629 31.926 9.27045 31.926H9.36538C9.3683 31.9261 9.37147 31.9269 9.37452 31.9269H9.72085C9.72415 31.9269 9.72707 31.9261 9.73024 31.926H9.82048C9.86451 31.926 9.90779 31.909 9.93952 31.8792C9.97124 31.8501 9.98863 31.8092 9.98863 31.7672V31.6818C9.98863 31.6808 9.98889 31.6797 9.98889 31.6786V28.7496C9.98889 28.7458 9.98863 28.7422 9.98863 28.7383V28.5012C10.0053 28.229 10.0916 27.9838 10.2333 27.8057C10.3851 27.6158 10.6076 27.4923 10.9076 27.4914C11.0665 27.4914 11.1709 27.5104 11.2613 27.548C11.3485 27.5861 11.4374 27.6512 11.5541 27.7716L11.5805 27.7988L11.7 27.9319C11.7281 27.9634 11.7692 27.9819 11.8123 27.9823C11.8556 27.9832 11.8996 27.9662 11.9329 27.9359L12.3451 27.5608C12.378 27.5309 12.399 27.4885 12.4027 27.4444C12.4069 27.401 12.3924 27.3585 12.3644 27.3273Z" fill="white"/>
<path d="M26.2208 29.2252C26.2185 29.2234 26.216 29.2223 26.2141 29.2208C25.893 28.9965 25.4858 28.9185 25.0479 28.8812L24.2271 28.812C23.8856 28.7833 23.6739 28.7122 23.5509 28.6157C23.4467 28.5362 23.3821 28.4079 23.3802 28.2108V28.2064V28.1961C23.3821 27.9628 23.4727 27.7934 23.6338 27.6783C23.8054 27.5544 24.0805 27.4756 24.4696 27.4751H24.4729C24.9695 27.476 25.3807 27.5919 25.7233 27.8121L25.9311 27.9588C25.9643 27.9823 26.0069 27.9909 26.0476 27.9814C26.0891 27.9724 26.1268 27.9467 26.1514 27.9109L26.458 27.464C26.4828 27.428 26.4934 27.3829 26.4875 27.341C26.4843 27.3178 26.4753 27.2962 26.4626 27.2771C26.4513 27.2554 26.4352 27.236 26.4139 27.2208L26.3786 27.1955C25.8892 26.8467 25.2067 26.6511 24.4711 26.6501C23.8821 26.6502 23.3796 26.7918 23.0148 27.063C22.6531 27.3297 22.4404 27.733 22.4402 28.1919L22.4404 28.1983V28.2013L22.4402 28.2136C22.4402 28.6193 22.5906 28.9779 22.8908 29.2223C23.1942 29.4704 23.6211 29.6026 24.1589 29.646L25.0026 29.7143C25.3118 29.7426 25.5052 29.8113 25.6189 29.9066C25.7183 29.9872 25.7816 30.115 25.7822 30.3188V30.3298V30.3315C25.7799 30.5883 25.6765 30.7655 25.4835 30.8885C25.2762 31.0198 24.9394 31.1003 24.4711 31.1003H24.4679C24.4663 31.1003 24.4633 31.1006 24.4592 31.1009H24.455C23.8372 31.0979 23.3981 30.959 23.0562 30.6767L22.8783 30.5262C22.8464 30.499 22.804 30.4863 22.7614 30.492C22.7186 30.4976 22.6778 30.5202 22.6495 30.5543L22.2961 30.9814C22.2677 31.0156 22.2529 31.0604 22.2554 31.1038C22.2573 31.1469 22.2771 31.1872 22.309 31.2141L22.4766 31.3559C22.48 31.3584 22.4827 31.3613 22.486 31.364L22.5078 31.3823L22.5094 31.3806C23.028 31.7562 23.6753 31.9359 24.4679 31.9359H24.482C25.1355 31.9352 25.6869 31.7936 26.0893 31.5158C26.487 31.2419 26.7241 30.8192 26.7235 30.3315V30.3072C26.7243 29.8156 26.5338 29.4449 26.2208 29.2252Z" fill="white"/>
<path d="M46.4716 31.7049L45.7834 30.7337L44.4045 28.7202L45.4761 27.582L46.1001 26.9226L46.138 26.8805C46.21 26.8079 46.1748 26.7325 46.1434 26.7034C46.1122 26.6737 46.0685 26.6566 46.0244 26.6566H45.308C45.2653 26.6566 45.2101 26.6895 45.1788 26.7173C45.1781 26.7175 45.1794 26.7171 45.1788 26.7173L42.7729 29.2834V27.139V25.2468C42.7729 25.2051 42.7548 25.164 42.7237 25.1348C42.6922 25.1051 42.6487 25.0881 42.6044 25.0881H42.0545C42.0105 25.0881 41.9671 25.1051 41.9357 25.1348C41.9037 25.164 41.8864 25.2051 41.8864 25.2468V27.139V31.7666C41.8864 31.8083 41.9043 31.8496 41.9355 31.8788C41.9669 31.9083 42.0105 31.9255 42.0548 31.9255H42.6047C42.6487 31.9255 42.6921 31.9083 42.7237 31.8788C42.7556 31.8496 42.7729 31.8083 42.7729 31.7666V30.4504L43.8151 29.3208L44.5166 30.3705H44.5136L45.4997 31.8443C45.5228 31.877 45.5592 31.9289 45.6415 31.9289H46.358C46.4023 31.9289 46.4458 31.9117 46.4772 31.8819C46.5084 31.8528 46.5291 31.7775 46.4716 31.7049Z" fill="white"/>
<path d="M40.3123 25.1379H40.4093L40.5538 25.563L40.6983 25.1379H40.7944V25.6408H40.7297V25.3433C40.7297 25.3329 40.7302 25.3172 40.7302 25.2926C40.7302 25.2686 40.7316 25.2444 40.7316 25.2166L40.5874 25.6408H40.5195L40.3756 25.2166V25.2314V25.2874C40.3766 25.3139 40.3766 25.3321 40.3766 25.3433V25.6408H40.3123V25.1379Z" fill="white"/>
<path d="M41.3075 25.3678C41.3381 25.3678 41.363 25.3617 41.3819 25.3488C41.3985 25.3371 41.4087 25.3139 41.4087 25.2793C41.4087 25.2444 41.3966 25.2194 41.3702 25.2062C41.3564 25.199 41.3381 25.1959 41.3163 25.1959H41.1533V25.3678H41.3075ZM41.0854 25.1379H41.3152C41.3528 25.1379 41.3844 25.1432 41.4078 25.1546C41.4546 25.1753 41.4773 25.2149 41.4773 25.2729C41.4773 25.3029 41.4723 25.3276 41.4593 25.3472C41.4459 25.3657 41.4287 25.3822 41.406 25.3937C41.4258 25.4022 41.4419 25.412 41.4517 25.4249C41.4608 25.4379 41.4664 25.4598 41.4664 25.489L41.4702 25.5553C41.4702 25.5753 41.4728 25.5893 41.4747 25.5989C41.4794 25.6138 41.4864 25.6242 41.497 25.6285V25.6408H41.4136C41.4112 25.6355 41.4102 25.6304 41.4078 25.6242C41.406 25.6172 41.4055 25.604 41.4051 25.5845L41.4004 25.5002C41.398 25.4668 41.3872 25.4447 41.3649 25.434C41.3528 25.4279 41.3314 25.4249 41.3045 25.4249H41.1533V25.6408H41.0854V25.1379Z" fill="white"/>
<path d="M40.9428 25.6382C40.9234 25.6382 40.91 25.6238 40.91 25.6016C40.91 25.5796 40.9237 25.5645 40.9448 25.5645C40.9646 25.5645 40.9788 25.5796 40.9788 25.6016C40.9788 25.6238 40.9646 25.6382 40.9428 25.6382Z" fill="white"/>
<path d="M41.631 25.6382C41.6109 25.6382 41.5963 25.6238 41.5963 25.6016C41.5963 25.5796 41.6109 25.5645 41.6317 25.5645C41.6528 25.5645 41.6665 25.5796 41.6665 25.6016C41.6665 25.6238 41.6524 25.6382 41.631 25.6382Z" fill="white"/>
<path d="M52.3185 12.5373V12.5704V12.5741V12.6087C52.3142 14.1012 52.156 15.5594 51.5883 16.6031C51.0303 17.6072 50.1333 18.2778 48.3909 18.3044C48.3796 18.3028 48.361 18.3028 48.3258 18.3044H48.297C46.5429 18.2868 45.6342 17.6147 45.0734 16.6014C44.501 15.5535 44.3405 14.083 44.3405 12.5816V12.491C44.3421 10.999 44.501 9.80186 45.0734 8.75879C45.6342 7.74504 46.5429 7.07242 48.297 7.0563H48.3088H48.3376H48.3642C50.1195 7.07242 51.025 7.74402 51.5905 8.76095C52.1586 9.80186 52.3185 10.999 52.3185 12.491V12.5373ZM52.8121 6.21959C52.8031 6.20893 52.7941 6.19776 52.7823 6.1871C51.8325 5.31079 50.3134 4.76825 48.5529 4.7666C48.5294 4.76343 48.4927 4.76343 48.4586 4.76343C47.0109 4.76292 45.5829 5.06509 44.3421 6.12732L44.3405 6.12846V5.19619H44.3433V0.473753C44.3433 0.349128 44.29 0.226407 44.1966 0.139601C44.1033 0.0510177 43.9733 0 43.8406 0H42.1969C42.0661 0 41.9367 0.0510177 41.8418 0.139601C41.7475 0.226407 41.6952 0.349128 41.6952 0.473753V5.19619L41.6963 15.2215L41.6952 19.9183C41.6952 20.0431 41.7491 20.1657 41.8418 20.252C41.9362 20.3409 42.0661 20.3917 42.1984 20.3917H43.8411C43.9733 20.3917 44.1028 20.3409 44.1966 20.252C44.292 20.1657 44.3443 20.0431 44.3443 19.9183V18.9472C45.4407 20.1737 47.0146 20.5963 48.4586 20.5958H48.5599C50.316 20.5899 51.8351 20.0474 52.7823 19.1721C54.5529 17.4958 54.9575 14.9262 54.9633 12.5378C54.9585 10.1623 54.5529 7.88946 52.8121 6.21959Z" fill="white"/>
<path d="M67.4595 12.8567C67.4595 14.3485 67.2996 15.5457 66.7315 16.5866C66.1659 17.6037 65.2603 18.2753 63.5052 18.2911H63.4785H63.4498H63.438C61.6839 18.2753 60.7751 17.6025 60.2144 16.5888C59.6419 15.5457 59.4831 14.3485 59.4815 12.8567V12.7661C59.4815 11.2646 59.6419 9.79402 60.2144 8.74612C60.7751 7.73288 61.6839 7.06076 63.438 7.04325H63.4667C63.502 7.04477 63.5205 7.04477 63.5318 7.04325C65.2743 7.06977 66.1713 7.74036 66.7293 8.7446C67.297 9.78818 67.4552 11.2465 67.4595 12.739V12.7736V12.7773V12.8103V12.8567ZM67.9531 19.128C69.6938 17.4581 70.0995 15.1854 70.1043 12.8098C70.0985 10.4213 69.6938 7.85179 67.9233 6.17544C66.9761 5.30027 65.457 4.75761 63.7007 4.75177H63.5994C62.1556 4.75126 60.5817 5.174 59.4853 6.40045V5.42921C59.4853 5.30446 59.433 5.18199 59.3376 5.09557C59.2438 5.0066 59.1143 4.95597 58.9821 4.95597H57.3394C57.2071 4.95597 57.0772 5.0066 56.9828 5.09557C56.89 5.18199 56.8362 5.30446 56.8362 5.42921V10.1261L56.8372 20.1514L56.8362 24.8738C56.8362 24.9985 56.8885 25.1211 56.9828 25.2079C57.0777 25.2964 57.2071 25.3477 57.3377 25.3477H58.9816C59.1143 25.3477 59.2443 25.2964 59.3376 25.2079C59.4309 25.1211 59.4842 24.9985 59.4842 24.8738V20.1514H59.4815V19.2192L59.4831 19.2202C60.7239 20.2825 62.1519 20.5848 63.5994 20.5841C63.6336 20.5841 63.6704 20.5841 63.6939 20.581C65.4544 20.5794 66.9733 20.0368 67.9233 19.1606C67.9349 19.1499 67.9439 19.1386 67.9531 19.128Z" fill="white"/>
<path d="M91.5356 21.8257C91.3911 22.2172 91.1319 22.8491 90.9589 23.2288C90.9589 23.2288 90.6462 23.9169 90.2035 24.3608C89.798 24.7656 89.3353 25.0452 88.8138 25.1999C88.2932 25.3541 87.9511 25.3782 87.9511 25.3782C87.5344 25.407 86.9266 25.4312 86.6005 25.4312C86.2743 25.4312 86.0072 25.0895 86.0072 24.6725V23.557C86.0072 23.1398 86.1769 22.7982 86.3836 22.7982C86.5908 22.7982 87.0996 22.7628 87.5146 22.72C87.5146 22.72 87.8306 22.6867 88.1197 22.465C88.4094 22.2423 88.5557 21.9231 88.5557 21.9231C88.7296 21.5434 88.9861 20.911 89.1253 20.5175L89.429 19.6596C89.5683 19.266 89.5645 18.6233 89.4216 18.2314L84.8216 5.6589C84.6781 5.26687 84.9024 4.94604 85.3201 4.94604H86.9271C87.3443 4.94604 87.7957 5.26954 87.9296 5.66473L90.9429 14.5568C91.0773 14.9525 91.2936 14.9515 91.4248 14.5551L94.3627 5.66689C94.4938 5.27005 94.9425 4.94604 95.3603 4.94604H96.9956C97.4133 4.94604 97.6367 5.26636 97.4926 5.65826L91.5356 21.8257Z" fill="white"/>
<path d="M74.022 15.8553V15.819C74.0302 15.0234 74.2727 14.5261 74.7292 14.1761C75.2067 13.8123 76.0112 13.5769 77.2158 13.5769H77.2261H81.277V14.839C81.2732 16.077 81.0015 16.7613 80.6378 17.0806C79.7592 17.89 78.6716 18.0118 77.3457 18.0151H77.3314H77.3073C76.0309 18.0162 75.193 17.7956 74.7178 17.4504C74.2655 17.1245 74.0334 16.6586 74.022 15.8553ZM84.0043 10.0676V10.0565C84.0048 8.48715 83.4824 7.14153 82.3866 6.24212C81.2842 5.33674 79.7004 4.91147 77.6629 4.91033H77.5889H77.5613C75.4201 4.90474 73.7212 5.37012 72.4272 6.74595L72.4218 6.74151L72.3476 6.83034C72.2506 6.93745 72.1551 7.04939 72.0619 7.16729C72.0612 7.16843 72.0607 7.17008 72.0601 7.17122L71.9278 7.32808C71.8483 7.422 71.8093 7.54814 71.8258 7.67493C71.8395 7.80234 71.9044 7.92468 72.003 8.01022L72.0777 8.07495C72.1063 8.10896 72.138 8.14081 72.1732 8.16987L72.4624 8.40758L73.2327 9.07322C73.3311 9.15875 73.4612 9.20533 73.5868 9.19886C73.7124 9.19391 73.8293 9.1368 73.9089 9.0425L74.4028 8.4558C74.7112 8.12216 75.0279 7.88407 75.4102 7.71668C75.9502 7.48012 76.6433 7.36933 77.6447 7.35994L77.6569 7.35943L77.6903 7.35829C79.115 7.36159 80.0012 7.65132 80.5082 8.09639C81.0142 8.53372 81.271 9.19607 81.2748 10.2245C81.2748 10.231 81.2748 10.2497 81.277 10.2728V11.243H77.0483C75.3417 11.2468 73.9149 11.6321 72.8855 12.4349C71.8626 13.2201 71.2919 14.4284 71.2914 15.8366L71.2919 15.8898C71.2947 17.0631 71.7353 18.2127 72.537 19.0118C73.6192 20.0779 75.0612 20.4654 77.2398 20.4654H77.264H78.368C80.3633 20.4675 81.7944 19.9742 82.7164 18.9809C83.6361 17.9882 84.0048 16.551 84.0048 14.7649V10.0945L84.0043 10.0676Z" fill="white"/>
<path d="M24.7163 4.97601C24.28 4.97601 23.8262 5.31956 23.707 5.73861L20.8341 15.8716C20.715 16.2914 20.506 16.2957 20.3696 15.8814L17.0282 5.7291C16.8922 5.31499 16.4239 4.97601 15.9876 4.97601H15.3884C14.9522 4.97601 14.4846 5.31512 14.3492 5.72973L11.0342 15.8807C10.8988 16.2953 10.6895 16.292 10.5699 15.8723L7.67112 5.73874C7.55106 5.31918 7.09583 4.97601 6.65939 4.97601H5.43859C5.00277 4.97601 4.75374 5.31613 4.88526 5.73189L9.31878 19.715C9.45077 20.1302 9.91513 20.4709 10.3516 20.4709H11.1901C11.5794 20.4709 11.9991 20.1689 12.1227 19.7998L15.437 9.90912C15.5757 9.49564 15.803 9.49564 15.9427 9.90861L19.2556 19.7195C19.3955 20.1324 19.8666 20.4709 20.3024 20.4709H21.114C21.5178 20.4709 21.9477 20.1558 22.069 19.7704L26.4917 5.73239C26.6227 5.31613 26.3731 4.97601 25.9372 4.97601L24.7163 4.97601Z" fill="white"/>
<path d="M39.8166 12.2344C39.8166 7.63543 37.3763 4.77844 33.4486 4.77844C29.4615 4.77844 27.0811 7.72427 27.0811 12.6581C27.0811 17.7391 29.4821 20.5377 33.8417 20.5377C36.5495 20.5377 38.0023 19.6293 39.4686 18.1639L39.6635 17.9688L37.7922 16.3261L37.6208 16.497C36.426 17.6917 35.4528 18.1149 33.9023 18.1149C31.3206 18.1149 29.8582 16.4739 29.7793 13.4913H39.8166V12.2344ZM29.7901 11.3408C29.8445 10.3767 29.9142 9.94519 30.209 9.22079C30.751 7.93773 31.9923 7.14086 33.4486 7.14086C34.9048 7.14086 36.1458 7.9371 36.6875 9.21863C36.9832 9.94519 37.0526 10.3767 37.1073 11.3408H29.7901Z" fill="white"/>
<path d="M1.57504 8.18493C2.44541 8.18493 3.15217 7.47449 3.15217 6.59818C3.15217 5.72187 2.44541 5.01093 1.57504 5.01093C0.706721 5.01093 0 5.72187 0 6.59818C0 7.47449 0.706721 8.18493 1.57504 8.18493Z" fill="white"/>
<path d="M97.4122 20.462C98.2832 20.462 98.9894 19.7514 98.9894 18.8758C98.9894 17.9989 98.2832 17.2874 97.4122 17.2874C96.5435 17.2874 95.8383 17.9989 95.8383 18.8758C95.8383 19.7514 96.5435 20.462 97.4122 20.462Z" fill="white"/>
</svg>
