<svg width="74" height="74" viewBox="0 0 74 74" fill="none" xmlns="http://www.w3.org/2000/svg">
<circle cx="37" cy="37" r="36" fill="url(#paint0_linear_2518_2)" stroke="url(#paint1_linear_2518_2)" stroke-width="2"/>
<path d="M12.38 44.28C8 44.28 4.78 41.3 4.78 37.04V37C4.78 32.92 7.98 29.72 12.3 29.72C14.78 29.72 16.48 30.46 17.98 31.74L15.7 34.5C14.68 33.64 13.74 33.18 12.32 33.18C10.32 33.18 8.74 34.86 8.74 37V37.04C8.74 39.32 10.32 40.94 12.54 40.94C13.5 40.94 14.22 40.74 14.78 40.36V38.66H12.04V35.82H18.46V42.1C16.96 43.36 14.96 44.28 12.38 44.28ZM20.7111 44V30H24.5911V44H20.7111ZM27.1541 44V30H33.7741C35.9341 30 37.3941 30.56 38.3341 31.5C39.1541 32.32 39.5741 33.42 39.5741 34.76V34.8C39.5741 36.96 38.4541 38.38 36.6941 39.12L40.0341 44H35.5741L32.7541 39.76H31.0341V44H27.1541ZM31.0341 36.72H33.6141C34.9141 36.72 35.6941 36.08 35.6941 35.06V35.02C35.6941 33.9 34.8741 33.34 33.5941 33.34H31.0341V36.72ZM40.1752 44L46.1152 29.9H49.8552L55.8152 44H51.6552L50.6552 41.48H45.2352L44.2352 44H40.1752ZM46.3752 38.46H49.5152L47.9552 34.5L46.3752 38.46ZM57.1736 44V30H63.7936C65.9536 30 67.4136 30.56 68.3536 31.5C69.1736 32.32 69.5936 33.42 69.5936 34.76V34.8C69.5936 36.96 68.4736 38.38 66.7136 39.12L70.0536 44H65.5936L62.7736 39.76H61.0536V44H57.1736ZM61.0536 36.72H63.6336C64.9336 36.72 65.7136 36.08 65.7136 35.06V35.02C65.7136 33.9 64.8936 33.34 63.6136 33.34H61.0536V36.72Z" fill="white"/>
<path d="M12.38 44.28C8 44.28 4.78 41.3 4.78 37.04V37C4.78 32.92 7.98 29.72 12.3 29.72C14.78 29.72 16.48 30.46 17.98 31.74L15.7 34.5C14.68 33.64 13.74 33.18 12.32 33.18C10.32 33.18 8.74 34.86 8.74 37V37.04C8.74 39.32 10.32 40.94 12.54 40.94C13.5 40.94 14.22 40.74 14.78 40.36V38.66H12.04V35.82H18.46V42.1C16.96 43.36 14.96 44.28 12.38 44.28ZM20.7111 44V30H24.5911V44H20.7111ZM27.1541 44V30H33.7741C35.9341 30 37.3941 30.56 38.3341 31.5C39.1541 32.32 39.5741 33.42 39.5741 34.76V34.8C39.5741 36.96 38.4541 38.38 36.6941 39.12L40.0341 44H35.5741L32.7541 39.76H31.0341V44H27.1541ZM31.0341 36.72H33.6141C34.9141 36.72 35.6941 36.08 35.6941 35.06V35.02C35.6941 33.9 34.8741 33.34 33.5941 33.34H31.0341V36.72ZM40.1752 44L46.1152 29.9H49.8552L55.8152 44H51.6552L50.6552 41.48H45.2352L44.2352 44H40.1752ZM46.3752 38.46H49.5152L47.9552 34.5L46.3752 38.46ZM57.1736 44V30H63.7936C65.9536 30 67.4136 30.56 68.3536 31.5C69.1736 32.32 69.5936 33.42 69.5936 34.76V34.8C69.5936 36.96 68.4736 38.38 66.7136 39.12L70.0536 44H65.5936L62.7736 39.76H61.0536V44H57.1736ZM61.0536 36.72H63.6336C64.9336 36.72 65.7136 36.08 65.7136 35.06V35.02C65.7136 33.9 64.8936 33.34 63.6136 33.34H61.0536V36.72Z" fill="#472100"/>
<path d="M54.1769 10.9437L52.7385 12.213C41.2308 0.959114 21.9384 5.69758 17.6231 20.7591C17.5384 21.0976 17.7077 21.436 18.0461 21.5207C18.3 21.6053 18.4692 21.5207 18.6384 21.436C18.7231 21.3514 18.7231 21.3514 18.8077 21.2668C24.3923 9.6745 39.6231 8.48988 46.3923 17.8822L44.8692 19.236C44.3615 19.6591 44.6154 20.4207 45.2077 20.5899L55.9538 23.2976C56.4615 23.4668 57.0538 22.9591 56.9692 22.4514L55.5308 11.4514C55.4461 10.7745 54.6846 10.5207 54.1769 10.9437Z" fill="#472100"/>
<path d="M19.8231 62.387L21.2615 61.1178C32.7692 72.3717 52.0615 67.6332 56.3769 52.5717C56.4615 52.2332 56.2923 51.8947 55.9539 51.8101C55.7 51.7255 55.5308 51.8101 55.3615 51.8947C55.2769 51.9793 55.2769 51.9793 55.1923 52.064C49.6077 63.6563 34.3769 64.8409 27.6077 55.4486L29.1308 54.0947C29.6385 53.6717 29.3846 52.9101 28.7923 52.7409L18.0462 50.0332C17.5385 49.864 16.9462 50.3717 17.0308 50.8793L18.4692 61.8793C18.5538 62.5563 19.3154 62.8101 19.8231 62.387Z" fill="#472100"/>
<defs>
<linearGradient id="paint0_linear_2518_2" x1="55.5" y1="8.50002" x2="18" y2="69" gradientUnits="userSpaceOnUse">
<stop stop-color="#FFE148"/>
<stop offset="0.795" stop-color="#C35B00"/>
<stop offset="1" stop-color="#713500"/>
</linearGradient>
<linearGradient id="paint1_linear_2518_2" x1="2" y1="37" x2="72" y2="37" gradientUnits="userSpaceOnUse">
<stop stop-color="#C35B00"/>
<stop offset="0.27" stop-color="#FFD446"/>
<stop offset="0.525" stop-color="#FFE694"/>
<stop offset="0.75" stop-color="#FFD446"/>
<stop offset="1" stop-color="#C35B00"/>
</linearGradient>
</defs>
</svg>
