<svg width="188" height="72" viewBox="0 0 188 72" fill="none" xmlns="http://www.w3.org/2000/svg">
<path d="M50.4141 6.13045C50.4141 7.7568 49.7486 9.31285 48.5628 10.4658C47.377 11.6141 45.7647 12.2609 44.0868 12.2609C42.4089 12.2609 40.8013 11.6141 39.6108 10.4658C38.4251 9.31753 37.7595 7.7568 37.7595 6.13045C37.7595 4.5041 38.4251 2.94806 39.6108 1.79508C40.7966 0.646792 42.4042 0 44.0868 0C45.7647 0 47.3723 0.646792 48.5628 1.79508C49.7439 2.94337 50.4141 4.5041 50.4141 6.13045Z" fill="#FF2400"/>
<path d="M50.4141 15.9025H37.7595V45.3783H50.4141V15.9025Z" fill="#FF2400"/>
<path d="M111.956 28.3603V15.9025H91.8117V28.3603H111.956Z" fill="#FF2400"/>
<path d="M17.0555 34.1279C26.4761 34.1279 34.1111 26.4882 34.1111 17.0676C34.1111 7.64694 26.4761 0.00730515 17.0555 0.00730515C7.63492 0.00730515 0 7.64694 0 17.0676V45.3811H12.3405V33.467V17.0957C12.3405 17.0863 12.3405 17.077 12.3405 17.0676C12.3405 14.4617 14.4543 12.3479 17.0602 12.3479C19.6661 12.3479 21.7799 14.4617 21.7799 17.0676C21.7799 19.6735 19.6661 21.7873 17.0602 21.7873C16.6853 21.7873 16.3197 21.7451 15.9729 21.6607V34.0951C16.3244 34.1138 16.69 34.1279 17.0555 34.1279Z" fill="#FF2400"/>
<path d="M170.415 34.1254C179.836 34.1254 187.471 26.4858 187.471 17.0652C187.471 7.64451 179.836 0.00487137 170.415 0.00487137C160.995 0.00487137 153.36 7.64451 153.36 17.0652V45.3787H165.7V34.1254V17.0652C165.7 14.4592 167.814 12.3455 170.42 12.3455C173.026 12.3455 175.14 14.4592 175.14 17.0652C175.14 19.6711 173.026 21.7849 170.42 21.7849C170.045 21.7849 169.68 21.7427 169.333 21.6583V34.0926C169.689 34.1114 170.05 34.1254 170.415 34.1254Z" fill="#FF2400"/>
<path d="M88.1743 17.0603V45.3738H75.8337V17.4212C75.8337 16.1698 75.3369 14.9699 74.4511 14.0841C73.5653 13.1983 72.3655 12.7015 71.1141 12.7015C69.8627 12.7015 68.6628 13.1983 67.777 14.0841C66.8912 14.9699 66.3944 16.1698 66.3944 17.4212C66.3944 17.4352 66.3944 17.4446 66.3944 17.4587V33.4597V45.3738H54.0538V17.0603C54.0538 7.63963 61.6887 0 71.1094 0C80.5347 0 88.1743 7.63963 88.1743 17.0603Z" fill="#FF2400"/>
<path d="M115.601 28.3182V0.609299H127.941V11.9141V27.8917C127.941 27.9104 127.941 27.9339 127.941 27.9526C127.941 29.204 128.438 30.4039 129.324 31.2897C130.21 32.1755 131.41 32.6723 132.661 32.6723C133.912 32.6723 135.112 32.1755 135.998 31.2897C136.884 30.4039 137.381 29.204 137.381 27.9526V0.609299H149.721V28.3182C149.721 37.7389 142.082 45.3785 132.666 45.3785C123.236 45.3785 115.601 37.7389 115.601 28.3182Z" fill="#FF2400"/>
<path d="M67.2932 62.9732H71.0005L69.1538 58.3051L67.2932 62.9732Z" fill="#00CFA6"/>
<path d="M139.153 58.1411C138.797 57.7474 138.366 57.4334 137.86 57.2037C137.353 56.974 136.791 56.8569 136.172 56.8569C135.554 56.8569 134.996 56.974 134.494 57.2037C133.993 57.4334 133.566 57.7474 133.21 58.1411C132.854 58.5348 132.578 59.0035 132.381 59.5425C132.184 60.0815 132.085 60.6673 132.085 61.3001C132.085 61.9328 132.184 62.5186 132.381 63.0576C132.578 63.5966 132.854 64.0653 133.21 64.459C133.566 64.8527 133.993 65.1667 134.494 65.3964C134.996 65.626 135.554 65.7432 136.172 65.7432C136.791 65.7432 137.353 65.626 137.86 65.3964C138.366 65.1667 138.797 64.8527 139.153 64.459C139.509 64.0653 139.786 63.5966 139.983 63.0576C140.18 62.5186 140.278 61.9328 140.278 61.3001C140.278 60.6673 140.18 60.0815 139.983 59.5425C139.786 59.0035 139.509 58.5348 139.153 58.1411Z" fill="#00CFA6"/>
<path d="M187.058 50.5809H0V61.6607C0.00468688 63.0199 0.271842 64.3697 0.787399 65.6258C1.30764 66.8819 2.06223 68.0208 3.01835 68.9816C3.97447 69.9424 5.10401 70.7017 6.35072 71.2219C7.59743 71.7375 8.93319 72.0046 10.2783 72H177.187C179.906 72 182.516 70.9126 184.443 68.9769C186.369 67.0412 187.461 64.4072 187.47 61.6607V50.5809H187.058ZM54.4099 67.1818C53.5147 67.6833 52.4789 67.9317 51.3072 67.9317C50.2902 67.9317 49.3809 67.763 48.5795 67.4256C47.7733 67.0881 47.089 66.6241 46.5219 66.0335C45.9548 65.4383 45.5189 64.74 45.219 63.9385C44.9143 63.137 44.7644 62.2606 44.7644 61.3092C44.7644 60.3858 44.9237 59.5188 45.2471 58.7079C45.5705 57.8971 46.0157 57.1941 46.5922 56.5941C47.164 55.9942 47.853 55.5208 48.6591 55.1693C49.4606 54.8225 50.3464 54.6444 51.3072 54.6444C52.4274 54.6444 53.4304 54.8694 54.3209 55.324C55.2114 55.7786 55.9566 56.4817 56.5659 57.4284L54.7099 58.6517C53.9038 57.4284 52.7789 56.8144 51.3307 56.8144C50.6979 56.8144 50.1261 56.9316 49.6106 57.1706C49.095 57.4097 48.6638 57.7284 48.3076 58.1314C47.9514 58.5345 47.6749 59.0079 47.478 59.5563C47.2812 60.1046 47.1828 60.6858 47.1828 61.3045C47.1828 61.9231 47.2812 62.5043 47.478 63.0433C47.6749 63.5823 47.9561 64.0557 48.317 64.4587C48.6779 64.8618 49.1138 65.1758 49.6199 65.4055C50.1261 65.6351 50.6979 65.7523 51.3307 65.7523C52.1227 65.7523 52.7976 65.5789 53.3554 65.2368C53.9131 64.8946 54.3818 64.4259 54.7474 63.8354L56.5847 65.0024C56.0316 65.9539 55.3051 66.6803 54.4099 67.1818ZM72.984 67.927L71.8357 65.0587H66.4505L65.3022 67.927H62.7619L68.494 54.6678H69.7688L75.5618 67.927H72.984ZM90.602 65.6773C90.3911 66.1507 90.0911 66.5585 89.7021 66.8912C89.3131 67.2287 88.8444 67.4865 88.3007 67.6599C87.7524 67.838 87.1384 67.927 86.4541 67.927C84.0169 67.927 82.5124 66.8584 81.9453 64.7259L84.0591 63.9338C84.2841 64.6181 84.5887 65.1055 84.9777 65.3868C85.3667 65.668 85.8964 65.8133 86.5666 65.8133C87.1853 65.8133 87.6727 65.6633 88.0289 65.368C88.3851 65.0727 88.5632 64.665 88.5632 64.1541C88.5632 63.9151 88.5257 63.6995 88.446 63.5026C88.3663 63.3058 88.2304 63.1277 88.043 62.9683C87.8508 62.809 87.5883 62.6637 87.2509 62.5324C86.9134 62.4012 86.4916 62.27 85.976 62.1387C84.7106 61.8247 83.7826 61.356 83.1873 60.7467C82.5921 60.1328 82.2968 59.2985 82.2968 58.2486C82.2968 57.7237 82.3906 57.2362 82.5827 56.7957C82.7749 56.3551 83.0467 55.9755 83.4029 55.6615C83.7591 55.3474 84.195 55.1037 84.7059 54.9303C85.2215 54.7569 85.7979 54.6725 86.4447 54.6725C88.5257 54.6725 89.8661 55.549 90.4567 57.3019L88.3617 58.1736C88.1133 57.2503 87.4384 56.791 86.3463 56.791C85.8073 56.791 85.3855 56.9082 85.0808 57.1378C84.7762 57.3675 84.6262 57.6768 84.6262 58.0565C84.6262 58.0846 84.6262 58.1033 84.6262 58.1174C84.6262 58.3564 84.6684 58.5579 84.7528 58.7314C84.8371 58.9048 84.9824 59.0641 85.1886 59.2141C85.3949 59.3641 85.6714 59.5094 86.0276 59.6406C86.3838 59.7719 86.8384 59.9125 87.3915 60.0578C88.6147 60.3999 89.5099 60.8873 90.0677 61.5201C90.6254 62.1528 90.9066 63.0105 90.9066 64.0885C90.9207 64.6697 90.8129 65.204 90.602 65.6773ZM101.649 67.9317H99.2165V54.6678H101.649V67.9317ZM121.451 67.9317H120.359L113.047 59.5703V67.9317H110.666V54.6631H111.777L119.089 63.0058V54.6631H121.451V67.9317ZM142.223 63.9151C141.9 64.7259 141.45 65.4242 140.873 66.0148C140.292 66.6053 139.603 67.074 138.802 67.4162C138 67.7583 137.124 67.927 136.177 67.927C135.179 67.927 134.274 67.7536 133.473 67.4162C132.671 67.074 131.987 66.6053 131.42 66.0148C130.853 65.4242 130.422 64.7212 130.117 63.9151C129.812 63.1042 129.662 62.2325 129.662 61.2998C129.662 60.3812 129.822 59.5141 130.145 58.7032C130.469 57.8924 130.918 57.1894 131.495 56.5895C132.076 55.9895 132.76 55.5208 133.557 55.1787C134.354 54.8366 135.226 54.6678 136.172 54.6678C137.171 54.6678 138.075 54.8413 138.886 55.1787C139.697 55.5208 140.381 55.9895 140.948 56.5895C141.516 57.1894 141.947 57.8924 142.251 58.7032C142.556 59.5141 142.706 60.3765 142.706 61.2998C142.706 62.2325 142.542 63.1042 142.223 63.9151Z" fill="#00CFA6"/>
</svg>
